<svg width="417" height="61" viewBox="0 0 417 61" fill="none" xmlns="http://www.w3.org/2000/svg">
<path d="M19.8125 37.6562L14.5938 47.0312C8.57292 43.9896 3.76042 41.5312 0.15625 39.6562C4.78125 35.3438 7.35417 32.3125 7.875 30.5625C7.95833 30.25 8 29.8854 8 29.4688C8 27.4896 7.13542 24.5938 5.40625 20.7812C3.67708 16.9688 2.52083 14.3542 1.9375 12.9375C1.375 11.5 1.09375 10.3958 1.09375 9.625C1.09375 8.85417 1.22917 8.1875 1.5 7.625C2.0625 6.33333 3.42708 5.15625 5.59375 4.09375C7.76042 3.01042 11.0521 1.65625 15.4688 0.03125C16.0938 1.48958 16.5521 2.58333 16.8438 3.3125C13.9271 4.27083 12.3854 5.47917 12.2188 6.9375C12.1979 7.125 12.1875 7.32292 12.1875 7.53125C12.1875 8.88542 12.6562 10.5417 13.5938 12.5C15.5104 10.4583 17.5208 8.29167 19.625 6C21.75 3.6875 23.625 1.69792 25.25 0.03125C27.75 1.38542 30.2812 2.73958 32.8438 4.09375C35.4062 5.42708 38.0729 6.57292 40.8438 7.53125C37.4479 9.82292 35.6771 13.7083 35.5312 19.1875L35.125 30.8125C35.125 31.0417 35.125 31.2604 35.125 31.4688C35.125 34.8438 36.3333 36.9062 38.75 37.6562C37.0417 40.7812 35.3958 43.9062 33.8125 47.0312C30.7917 45.9271 28.6979 44.2083 27.5312 41.875C26.3646 39.5208 25.7812 36.2396 25.7812 32.0312C25.7812 31.8229 25.7812 31.6042 25.7812 31.375L25.875 23.5C25.875 21.6042 26.2083 19.9479 26.875 18.5312C27.5625 17.1146 28.4479 15.6875 29.5312 14.25C27.3646 12.6458 25.2396 11.8438 23.1562 11.8438C20.8021 11.8438 18.2083 13.1458 15.375 15.75L15.4062 15.8438C16.9688 18.7604 17.75 21.1771 17.75 23.0938C17.75 23.6146 17.6875 24.1042 17.5625 24.5625C17 26.6667 15.0208 29.9271 11.625 34.3438C13.5833 35.7604 16.3125 36.8646 19.8125 37.6562ZM44.4375 22.9688C49.2917 19.7188 53.3229 16.7708 56.5312 14.125C58.1354 14.8125 59.75 16.0417 61.375 17.8125C64.8958 21.5833 66.9792 25.5208 67.625 29.625C67.7083 30.1042 67.75 30.5625 67.75 31C67.75 32.375 67.3646 33.4896 66.5938 34.3438L56.2188 47.5625L42.8438 40.9688C44.2604 38.0312 44.9688 35.4896 44.9688 33.3438L44.9062 26.0625C44.8438 24.5625 44.6875 23.5312 44.4375 22.9688ZM52.8438 21.875L52.75 35.1562C52.9375 36.1771 53.6562 36.9792 54.9062 37.5625C56.1562 38.125 56.9792 38.4062 57.375 38.4062C57.7917 38.4062 58.0729 38.3854 58.2188 38.3438C60.0521 37.9271 60.9688 36.7708 60.9688 34.875C60.9688 34.4375 60.9167 33.9479 60.8125 33.4062C60.1042 29.9688 59.0729 27.375 57.7188 25.625C56.3854 23.8542 54.7604 22.6042 52.8438 21.875ZM85.4688 47.5625C78.3021 44.7917 73.4583 42.8646 70.9375 41.7812C71.6458 40.3854 72.1875 39.2812 72.5625 38.4688C72.9583 37.6354 73.1875 36.0521 73.25 33.7188L73.2812 27.3125C73.2812 25.6458 72.5938 24.3229 71.2188 23.3438C69.8646 22.3646 68.9167 21.6875 68.375 21.3125L75.3438 14.125L81.375 19.5938L85.7812 14.125C87.3646 14.8125 88.9792 16.0417 90.625 17.8125C94.1458 21.5833 96.2292 25.5208 96.875 29.625C96.9583 30.1042 97 30.5521 97 30.9688C97 32.3646 96.6042 33.4896 95.8125 34.3438L85.4688 47.5625ZM81.25 36.4062C84.125 37.7396 86.0625 38.4062 87.0625 38.4062C87.2292 38.4062 87.375 38.3854 87.5 38.3438C89.2917 37.9271 90.1875 36.7917 90.1875 34.9375C90.1875 34.4792 90.1354 33.9688 90.0312 33.4062C89.5104 30.7604 88.5729 28.5729 87.2188 26.8438C85.8646 25.1146 84.4271 23.7604 82.9062 22.7812C81.9688 23.6562 81.4792 24.7292 81.4375 26L81.25 36.4062ZM99.1562 20.1875L103.875 14.25L110.875 17.5312C110.625 18.3854 110.354 19.2188 110.062 20.0312C109.771 20.8438 109.625 21.6771 109.625 22.5312L109.188 35.2188C109.188 35.3229 109.188 35.4167 109.188 35.5C109.188 36.4792 109.5 37.2917 110.125 37.9375C110.75 38.5833 111.469 39.0729 112.281 39.4062L106.031 47.0312L99.4062 41.6875C100.615 40.25 101.219 38.8125 101.219 37.375L101.438 23.1875C101.438 22.1875 100.677 21.1875 99.1562 20.1875ZM100.094 13.9688L102.594 1.625L111.875 5.34375L100.094 13.9688ZM115.031 24.2812L127.219 14.375L140.312 20.8438C138.708 22.2604 137.906 23.8542 137.906 25.625L137.781 35.9688C137.76 36.6771 138.375 38.0833 139.625 40.1875C140.875 42.2917 141.812 43.625 142.438 44.1875L130.094 58.3438C125.219 57.2604 119.833 56.5104 113.938 56.0938L122 45.9375C119.312 44.8333 117.01 43.4167 115.094 41.6875C115.781 40.7708 116.219 39.3438 116.406 37.4062L116.344 27.9688C116.365 26.5938 115.927 25.3646 115.031 24.2812ZM134.844 48.4688C132.427 45.7188 131.115 42.3646 130.906 38.4062L122.344 49.3438C125.635 49.3438 129.167 49.8646 132.938 50.9062L134.844 48.4688ZM130.719 34.8438L130.625 24.5312L125.094 21.875C123.885 23.6875 123.281 25.3021 123.281 26.7188V34.375C123.281 35.9167 123.51 36.9896 123.969 37.5938C124.448 38.1979 124.865 38.7083 125.219 39.125C125.573 39.5208 126.021 39.8542 126.562 40.125L130.719 34.8438ZM155.594 18.8125L159.656 14.6875C163.844 17.5833 166.677 20.5208 168.156 23.5L163.156 30.1875C162.594 28.5417 161.823 27.0938 160.844 25.8438C159.885 24.5938 158.281 23.3125 156.031 22L155 23.4062L154.406 34.0625C154.344 35.1458 155.031 36.2708 156.469 37.4375C157.906 38.6042 159.021 39.3542 159.812 39.6875L154.625 47.0312L144.938 39.5C146.104 38.1042 146.708 36.6667 146.75 35.1875L146.688 23.1875C146.625 22.1875 145.854 21.1875 144.375 20.1875L149.094 14.25L155.594 18.8125ZM169.781 24.2812L181.969 14.375L195.781 20.8438C194.156 22.2604 193.333 23.8542 193.312 25.625L193.188 35.9688C193.188 36.6771 193.552 37.4792 194.281 38.375C195.031 39.2708 195.74 39.9896 196.406 40.5312L190.094 47.0312L185.25 42.0625C184.083 43 182.906 43.8646 181.719 44.6562C180.531 45.4271 179.469 46.2396 178.531 47.0938C175.406 45.9271 172.49 44.125 169.781 41.6875C170.552 40.7083 171 39.2812 171.125 37.4062L171.031 27.9688C171.031 27.8854 171.031 27.8021 171.031 27.7188C171.031 26.4896 170.615 25.3438 169.781 24.2812ZM180.5 21.875C179.292 23.6875 178.688 25.3021 178.688 26.7188V34.375C178.688 35.9375 178.969 37.0521 179.531 37.7188C180.01 38.4062 180.448 39.0208 180.844 39.5625C181.26 40.1042 181.917 40.5 182.812 40.75L185.375 38.9062V24.5312L180.5 21.875ZM208.594 15.9688C206.99 13.2396 204.875 10.3646 202.25 7.34375L210.531 3C218.031 12.1458 222.198 22.9375 223.031 35.375C220.427 37.3333 218.219 39.1458 216.406 40.8125C214.615 42.4792 213.135 44.5521 211.969 47.0312C209.677 46.0104 207.385 44.9792 205.094 43.9375C202.823 42.875 200.729 41.4688 198.812 39.7188C198.729 36.5729 198.667 33.4167 198.625 30.25C198.583 27.0833 198.542 23.9167 198.5 20.75C203.5 18.4583 206.865 16.8646 208.594 15.9688ZM215 39.0625C215 38.8542 215 38.6354 215 38.4062C215 31.4062 213.354 24.75 210.062 18.4375C207.792 19.5208 206.438 21.4792 206 24.3125C205.854 25.4167 205.781 26.8229 205.781 28.5312C205.781 30.2396 205.99 32.4479 206.406 35.1562C209.323 37.4688 212.188 38.7708 215 39.0625ZM245.125 11.4375L264.594 0.03125C269.469 1.88542 274.656 4.79167 280.156 8.75C277.781 10.3333 275.344 12.0104 272.844 13.7812C279.385 18.8438 282.656 23.5104 282.656 27.7812C282.656 29.3854 282.208 30.9271 281.312 32.4062C277.958 37.8854 271.073 42.9583 260.656 47.625C254.656 42.3125 247.792 39.4271 240.062 38.9688L248 33.1875L248.188 17.8438C248.229 15.3021 247.208 13.1667 245.125 11.4375ZM267.844 12.4688C264.927 10.3021 261.708 8.70833 258.188 7.6875L258.125 19.0625L267.844 12.4688ZM267.781 40.75C271.115 37.8333 272.781 34.6667 272.781 31.25C272.781 29.0417 272.156 27.0104 270.906 25.1562C269.656 23.3021 267.812 21.9896 265.375 21.2188C264.479 20.9479 263.417 20.8125 262.188 20.8125C260.979 20.8125 259.615 21.2396 258.094 22.0938L258.031 30.4688L254.875 32.4062C260.958 35.4479 265.26 38.2292 267.781 40.75ZM285.906 24.2812L298.094 14.375L311.906 20.8438C310.281 22.2604 309.458 23.8542 309.438 25.625L309.312 35.9688C309.312 36.6771 309.677 37.4792 310.406 38.375C311.156 39.2708 311.865 39.9896 312.531 40.5312L306.219 47.0312L301.375 42.0625C300.208 43 299.031 43.8646 297.844 44.6562C296.656 45.4271 295.594 46.2396 294.656 47.0938C291.531 45.9271 288.615 44.125 285.906 41.6875C286.677 40.7083 287.125 39.2812 287.25 37.4062L287.156 27.9688C287.156 27.8854 287.156 27.8021 287.156 27.7188C287.156 26.4896 286.74 25.3438 285.906 24.2812ZM296.625 21.875C295.417 23.6875 294.812 25.3021 294.812 26.7188V34.375C294.812 35.9375 295.094 37.0521 295.656 37.7188C296.135 38.4062 296.573 39.0208 296.969 39.5625C297.385 40.1042 298.042 40.5 298.938 40.75L301.5 38.9062V24.5312L296.625 21.875ZM330.625 39.9062C327.042 43.8646 324.729 46.4062 323.688 47.5312C320.062 44.7812 317 42.4375 314.5 40.5C316.771 38.5 317.927 36.375 317.969 34.125L318.062 25.5312H315.125L318.094 19.9062L318.125 15.2188C318.125 13.8646 318.062 12.25 317.938 10.375C317.833 8.5 317.375 6.91667 316.562 5.625L326.875 0.03125C326.354 2.17708 326.042 4.61458 325.938 7.34375L330.938 2.34375L337.031 10.0312L329.625 18.7812H335.812L332.281 25.5312H325.719L325.625 34.3438C325.625 35.9062 325.76 36.875 326.031 37.25C326.302 37.625 327.833 38.5104 330.625 39.9062ZM325.781 11.125C325.76 11.9375 325.75 12.75 325.75 13.5625V18.7812H327.281L330.781 14.6875C330.365 11.9583 329.281 10.2812 327.531 9.65625L325.781 11.125ZM352.062 47.0312L337.094 41.0625C337.656 37.9375 337.938 34.6875 337.938 31.3125C337.938 27.9167 337.615 24.375 336.969 20.6875L347.75 14.3438V14.25L347.812 14.2812H347.844L360 23L347.344 36.3125C348.198 37.3333 349.146 37.8958 350.188 38C351.229 38.1042 352.083 38.1562 352.75 38.1562C353.438 38.1562 354.24 38.125 355.156 38.0625C356.094 37.9792 357.24 37.9167 358.594 37.875C357.49 39.4167 356.396 40.9479 355.312 42.4688C354.229 43.9896 353.146 45.5104 352.062 47.0312ZM346.875 22.6875C345.667 22.6875 345.062 24.3333 345.062 27.625C345.062 29.5 345.375 31.375 346 33.25C346 33.4375 346.031 33.5938 346.094 33.7188L351.125 28.4062C351.479 28.0312 351.656 27.6562 351.656 27.2812C351.656 26.9062 351.469 26.4271 351.094 25.8438C350.74 25.2604 350.375 24.7812 350 24.4062C348.688 23.2604 347.646 22.6875 346.875 22.6875ZM372.969 18.8125L377.031 14.6875C381.219 17.5833 384.052 20.5208 385.531 23.5L380.531 30.1875C379.969 28.5417 379.198 27.0938 378.219 25.8438C377.26 24.5938 375.656 23.3125 373.406 22L372.375 23.4062L371.781 34.0625C371.719 35.1458 372.406 36.2708 373.844 37.4375C375.281 38.6042 376.396 39.3542 377.188 39.6875L372 47.0312L362.312 39.5C363.479 38.1042 364.083 36.6667 364.125 35.1875L364.062 23.1875C364 22.1875 363.229 21.1875 361.75 20.1875L366.469 14.25L372.969 18.8125ZM400.5 46.9375L397 45.3438L389.469 43.0312C390.719 41.4688 391.344 39.5833 391.344 37.375L391.594 23.1875C391.594 22.1458 390.823 21.1458 389.281 20.1875L394 14.25L401.5 19.2188C401.271 20.0729 400.948 20.6875 400.531 21.0625C400.135 21.4167 399.896 22.0208 399.812 22.875L398.406 37.5312C398.344 38.1771 398.76 39.1771 399.656 40.5312C400.573 41.8854 401.719 42.5938 403.094 42.6562C405.26 37.6771 406.406 31.1875 406.531 23.1875C406.573 22.2083 405.823 21.2083 404.281 20.1875L409 14.25L416.062 19.2188C415.833 20.0729 415.594 20.6354 415.344 20.9062C415.094 21.1562 414.708 22.4479 414.188 24.7812C413.667 27.0938 412.542 30.2917 410.812 34.375C409.104 38.4583 407.219 42.2812 405.156 45.8438C403.115 49.3854 401.021 52.4688 398.875 55.0938C396.75 57.7396 394.844 59.5 393.156 60.375L387.094 55.4375C393.177 53.2083 397.646 50.375 400.5 46.9375Z" fill="#B76B30"/>
</svg>
